<svg width="110" height="110" viewBox="0 0 110 110" fill="none" xmlns="http://www.w3.org/2000/svg">
<rect width="110" height="110" rx="55" fill="#040404"/>
<g clip-path="url(#clip0_57_5894)">
<path d="M62.3309 64.8269L56.0337 61.3483C57.078 60.5126 57.8351 59.3739 58.3051 57.9323C58.775 56.4907 59.01 55.1223 59.01 53.8269V49.5962C59.01 48.6769 58.6497 47.7576 57.9291 46.8383C57.2085 45.919 56.2634 45.1617 55.0938 44.5662C53.9242 43.9708 52.7337 43.6731 51.5223 43.6731C50.8121 43.6731 50.0811 43.788 49.3292 44.0178C48.5773 44.2476 47.8881 44.561 47.2615 44.958C46.6349 45.3549 46.071 45.7989 45.5697 46.2899C45.0684 46.7809 44.6768 47.3189 44.3949 47.9038C44.1129 48.4888 43.9719 49.0529 43.9719 49.5962V53.8269C43.9719 54.9969 44.233 56.3236 44.7551 57.807C45.2773 59.2904 46.071 60.4604 47.1362 61.317L40.651 64.8269C40.5257 64.8896 40.369 64.9732 40.1811 65.0776C39.9931 65.1821 39.7425 65.3806 39.4292 65.6731C39.1159 65.9656 38.9592 66.2476 38.9592 66.5192V69.0577C38.9592 69.5382 39.1263 69.9404 39.4605 70.2642C39.7947 70.5881 40.1915 70.75 40.651 70.75H62.3309C62.7904 70.75 63.1872 70.5881 63.5214 70.2642C63.8556 69.9404 64.0227 69.5382 64.0227 69.0577V66.5192C64.0227 66.3939 63.9913 66.2633 63.9287 66.1275C63.866 65.9917 63.7877 65.8716 63.6937 65.7671C63.5997 65.6626 63.4901 65.5582 63.3647 65.4537C63.2394 65.3492 63.1141 65.2604 62.9888 65.1873C62.8635 65.1142 62.7538 65.0515 62.6598 64.9993C62.5659 64.9471 62.4875 64.9105 62.4249 64.8896L62.3309 64.8269ZM62.0176 68.7443H40.9643V66.958C41.1314 66.8326 41.2985 66.7386 41.4656 66.6759L41.5909 66.6132L48.0761 63.0719C48.1805 63.0302 48.2745 62.9727 48.358 62.8996C48.4416 62.8264 48.5199 62.7533 48.593 62.6802C48.6661 62.6071 48.734 62.5235 48.7966 62.4295C48.8593 62.3355 48.9115 62.2362 48.9533 62.1318C48.995 62.0273 49.0316 61.9228 49.0629 61.8184C49.0943 61.7139 49.1099 61.6094 49.1099 61.505C49.1726 60.7946 48.9324 60.2096 48.3893 59.75C47.9925 59.4366 47.6322 59.0188 47.3085 58.4964C46.9847 57.9741 46.7289 57.4309 46.5409 56.8668C46.3529 56.3027 46.212 55.7595 46.118 55.2372C46.024 54.7149 45.977 54.2448 45.977 53.8269V49.5962C45.977 48.8022 46.567 47.9509 47.7471 47.042C48.9272 46.1332 50.1856 45.6788 51.5223 45.6788C52.9008 45.6788 54.1592 46.128 55.2975 47.0264C56.4358 47.9247 57.0049 48.7813 57.0049 49.5962V53.8269C57.0049 54.8507 56.8274 55.9423 56.4723 57.1019C56.1172 58.2614 55.5533 59.1441 54.7805 59.75C54.2166 60.2096 53.966 60.7946 54.0286 61.505C54.0913 62.2153 54.4359 62.7481 55.0625 63.1033L61.3597 66.5819L61.5477 66.6759C61.6939 66.7386 61.8505 66.8326 62.0176 66.958V68.7443ZM69.3486 59.844L62.9575 56.334C63.5005 55.8953 63.9809 55.3469 64.3986 54.6887C64.8163 54.0306 65.1401 53.3464 65.3698 52.636C65.5996 51.9257 65.7667 51.2519 65.8711 50.6147C65.9755 49.9774 66.0277 49.3872 66.0277 48.844V44.6132C66.0277 43.9238 65.8032 43.2187 65.3542 42.4979C64.9051 41.7771 64.336 41.1346 63.6467 40.5705C62.9575 40.0064 62.1481 39.5415 61.2187 39.1759C60.2893 38.8103 59.365 38.6275 58.4461 38.6275C57.2764 38.6275 56.112 38.9148 54.9528 39.4893C53.7937 40.0639 52.8381 40.7899 52.0862 41.6674C52.1906 41.6674 52.3577 41.6726 52.5875 41.683C52.8172 41.6935 52.9948 41.7039 53.1201 41.7144C53.2454 41.7248 53.4073 41.7405 53.6057 41.7614C53.8041 41.7823 53.9868 41.8084 54.1539 41.8397C54.321 41.8711 54.4777 41.9076 54.6239 41.9494C55.7517 41.0928 57.0258 40.6645 58.4461 40.6645C59.8245 40.6645 61.0986 41.1189 62.2682 42.0278C63.4379 42.9366 64.0227 43.7984 64.0227 44.6132V48.844C64.0227 49.826 63.8295 50.9072 63.4431 52.0876C63.0567 53.268 62.4771 54.1612 61.7043 54.7671C61.1404 55.2058 60.8897 55.7908 60.9524 56.5221C60.9524 56.6474 60.9733 56.7728 61.0151 56.8981C61.0568 57.0235 61.109 57.1436 61.1717 57.2585C61.2344 57.3735 61.3022 57.4831 61.3753 57.5876C61.4484 57.6921 61.5372 57.7861 61.6416 57.8697C61.7461 57.9532 61.8609 58.0368 61.9863 58.1204L68.3774 61.599C68.4192 61.6199 68.4558 61.6356 68.4871 61.646C68.5184 61.6565 68.5497 61.6721 68.5811 61.693C68.6124 61.7139 68.649 61.7348 68.6907 61.7557C68.7325 61.7766 68.7743 61.7975 68.816 61.8184C68.8578 61.8393 68.8944 61.8602 68.9257 61.8811C68.957 61.9019 68.9936 61.9228 69.0354 61.9437V63.7301H64.9939C65.1819 63.8763 65.3437 64.0643 65.4795 64.2942C65.6152 64.524 65.7144 64.7329 65.7771 64.9209C65.8398 65.109 65.9233 65.3806 66.0277 65.7358H69.3486C69.6619 65.7358 69.9491 65.6626 70.2102 65.5164C70.4713 65.3701 70.6749 65.1664 70.8211 64.9053C70.9673 64.6441 71.0404 64.3568 71.0404 64.0434V61.5363C71.0404 61.2438 70.8994 60.9566 70.6175 60.6745C70.3355 60.3925 70.0483 60.1783 69.7559 60.0321L69.3486 59.844Z" fill="white"/>
</g>
<defs>
<clipPath id="clip0_57_5894">
<rect width="32.18" height="33" fill="white" transform="matrix(1 0 0 -1 38.9099 71)"/>
</clipPath>
</defs>
</svg>
