<svg width="179" height="51" viewBox="0 0 179 51" fill="none" xmlns="http://www.w3.org/2000/svg">
<rect x="0.5" y="0.5" width="178" height="50" stroke="url(#paint0_linear_212_354)"/>
<path d="M37.5248 31.112C36.7034 31.112 35.9674 30.9787 35.3168 30.712C34.6661 30.4453 34.1434 30.0507 33.7488 29.528C33.3648 29.0053 33.1621 28.376 33.1408 27.64H36.0528C36.0954 28.056 36.2394 28.376 36.4848 28.6C36.7301 28.8133 37.0501 28.92 37.4448 28.92C37.8501 28.92 38.1701 28.8293 38.4048 28.648C38.6394 28.456 38.7568 28.1947 38.7568 27.864C38.7568 27.5867 38.6608 27.3573 38.4688 27.176C38.2874 26.9947 38.0581 26.8453 37.7808 26.728C37.5141 26.6107 37.1301 26.4773 36.6288 26.328C35.9034 26.104 35.3114 25.88 34.8528 25.656C34.3941 25.432 33.9994 25.1013 33.6688 24.664C33.3381 24.2267 33.1728 23.656 33.1728 22.952C33.1728 21.9067 33.5514 21.0907 34.3088 20.504C35.0661 19.9067 36.0528 19.608 37.2688 19.608C38.5061 19.608 39.5034 19.9067 40.2608 20.504C41.0181 21.0907 41.4234 21.912 41.4768 22.968H38.5168C38.4954 22.6053 38.3621 22.3227 38.1168 22.12C37.8714 21.9067 37.5568 21.8 37.1727 21.8C36.8421 21.8 36.5754 21.8907 36.3728 22.072C36.1701 22.2427 36.0688 22.4933 36.0688 22.824C36.0688 23.1867 36.2394 23.4693 36.5807 23.672C36.9221 23.8747 37.4554 24.0933 38.1808 24.328C38.9061 24.5733 39.4928 24.808 39.9408 25.032C40.3994 25.256 40.7941 25.5813 41.1248 26.008C41.4554 26.4347 41.6208 26.984 41.6208 27.656C41.6208 28.296 41.4554 28.8773 41.1248 29.4C40.8048 29.9227 40.3354 30.3387 39.7168 30.648C39.0981 30.9573 38.3674 31.112 37.5248 31.112ZM47.0405 21.96V24.232H50.7045V26.344H47.0405V28.808H51.1845V31H44.3045V19.768H51.1845V21.96H47.0405ZM56.6968 21.96V24.232H60.3608V26.344H56.6968V28.808H60.8408V31H53.9608V19.768H60.8408V21.96H56.6968ZM74.9996 29.016H70.8076L70.1356 31H67.2716L71.3356 19.768H74.5036L78.5676 31H75.6716L74.9996 29.016ZM74.2956 26.904L72.9036 22.792L71.5276 26.904H74.2956ZM83.5405 28.888H87.1245V31H80.8045V19.768H83.5405V28.888ZM92.1655 28.888H95.7495V31H89.4295V19.768H92.1655V28.888ZM109.757 19.768V21.96H105.181V24.328H108.605V26.456H105.181V31H102.445V19.768H109.757ZM119.187 29.016H114.995L114.323 31H111.459L115.523 19.768H118.691L122.755 31H119.859L119.187 29.016ZM118.483 26.904L117.091 22.792L115.715 26.904H118.483ZM132.992 32.92L131.552 30.984C131.125 31.0693 130.709 31.112 130.304 31.112C129.248 31.112 128.277 30.8667 127.392 30.376C126.517 29.8853 125.819 29.2027 125.296 28.328C124.784 27.4427 124.528 26.4507 124.528 25.352C124.528 24.2533 124.784 23.2667 125.296 22.392C125.819 21.5173 126.517 20.8347 127.392 20.344C128.277 19.8533 129.248 19.608 130.304 19.608C131.36 19.608 132.325 19.8533 133.2 20.344C134.085 20.8347 134.779 21.5173 135.28 22.392C135.792 23.2667 136.048 24.2533 136.048 25.352C136.048 26.312 135.851 27.192 135.456 27.992C135.072 28.7813 134.533 29.4373 133.84 29.96L136.304 32.92H132.992ZM127.328 25.352C127.328 26.344 127.595 27.1387 128.128 27.736C128.672 28.3227 129.397 28.616 130.304 28.616C131.2 28.616 131.915 28.3173 132.448 27.72C132.992 27.1227 133.264 26.3333 133.264 25.352C133.264 24.36 132.992 23.5707 132.448 22.984C131.915 22.3867 131.2 22.088 130.304 22.088C129.397 22.088 128.672 22.3813 128.128 22.968C127.595 23.5547 127.328 24.3493 127.328 25.352ZM142.233 31.128C141.455 31.128 140.761 30.9947 140.153 30.728C139.545 30.4613 139.065 30.0987 138.713 29.64C138.361 29.1707 138.164 28.648 138.121 28.072H140.825C140.857 28.3813 141.001 28.632 141.257 28.824C141.513 29.016 141.828 29.112 142.201 29.112C142.543 29.112 142.804 29.048 142.985 28.92C143.177 28.7813 143.273 28.6053 143.273 28.392C143.273 28.136 143.14 27.9493 142.873 27.832C142.607 27.704 142.175 27.5653 141.577 27.416C140.937 27.2667 140.404 27.112 139.977 26.952C139.551 26.7813 139.183 26.52 138.873 26.168C138.564 25.8053 138.409 25.32 138.409 24.712C138.409 24.2 138.548 23.736 138.825 23.32C139.113 22.8933 139.529 22.5573 140.073 22.312C140.628 22.0667 141.284 21.944 142.041 21.944C143.161 21.944 144.041 22.2213 144.681 22.776C145.332 23.3307 145.705 24.0667 145.801 24.984H143.273C143.231 24.6747 143.092 24.4293 142.857 24.248C142.633 24.0667 142.335 23.976 141.961 23.976C141.641 23.976 141.396 24.04 141.225 24.168C141.055 24.2853 140.969 24.4507 140.969 24.664C140.969 24.92 141.103 25.112 141.369 25.24C141.647 25.368 142.073 25.496 142.649 25.624C143.311 25.7947 143.849 25.9653 144.265 26.136C144.681 26.296 145.044 26.5627 145.353 26.936C145.673 27.2987 145.839 27.7893 145.849 28.408C145.849 28.9307 145.7 29.4 145.401 29.816C145.113 30.2213 144.692 30.5413 144.137 30.776C143.593 31.0107 142.959 31.128 142.233 31.128Z" fill="#064B66"/>
<defs>
<linearGradient id="paint0_linear_212_354" x1="34.106" y1="-40.8544" x2="164.681" y2="68.1522" gradientUnits="userSpaceOnUse">
<stop stop-color="#04ABEB"/>
<stop offset="0.8" stop-color="#064B66"/>
</linearGradient>
</defs>
</svg>
