<svg width="176" height="32" viewBox="0 0 176 32" fill="none" xmlns="http://www.w3.org/2000/svg">
<path d="M29.2862 14.3568L23.6612 19.2105L25.3749 26.4693C25.4695 26.8633 25.4451 27.2765 25.3049 27.6568C25.1648 28.037 24.9151 28.3671 24.5873 28.6055C24.2596 28.8438 23.8686 28.9797 23.4637 28.996C23.0588 29.0122 22.6582 28.9081 22.3124 28.6968L15.9999 24.8118L9.68367 28.6968C9.33796 28.9069 8.9378 29.01 8.5336 28.9932C8.12939 28.9763 7.7392 28.8402 7.41217 28.6021C7.08514 28.3639 6.83589 28.0343 6.6958 27.6548C6.55571 27.2753 6.53105 26.8628 6.62492 26.4693L8.34492 19.2105L2.71992 14.3568C2.41404 14.0924 2.19283 13.7438 2.0839 13.3545C1.97497 12.9651 1.98316 12.5523 2.10744 12.1676C2.23172 11.7829 2.46659 11.4433 2.78271 11.1913C3.09883 10.9393 3.48219 10.786 3.88492 10.7505L11.2599 10.1555L14.1049 3.27053C14.2589 2.8953 14.521 2.57434 14.8579 2.34845C15.1948 2.12256 15.5912 2.00195 15.9968 2.00195C16.4024 2.00195 16.7988 2.12256 17.1357 2.34845C17.4726 2.57434 17.7347 2.8953 17.8887 3.27053L20.7324 10.1555L28.1074 10.7505C28.511 10.7847 28.8954 10.9371 29.2127 11.1888C29.53 11.4405 29.7659 11.7802 29.891 12.1653C30.016 12.5505 30.0246 12.964 29.9157 13.3541C29.8068 13.7441 29.5852 14.0934 29.2787 14.358L29.2862 14.3568Z" fill="#01AEED"/>
<path d="M65.2862 14.3568L59.6612 19.2105L61.3749 26.4693C61.4695 26.8633 61.4451 27.2765 61.3049 27.6568C61.1648 28.037 60.9151 28.3671 60.5873 28.6055C60.2596 28.8438 59.8686 28.9797 59.4637 28.996C59.0588 29.0122 58.6582 28.9081 58.3124 28.6968L51.9999 24.8118L45.6837 28.6968C45.338 28.9069 44.9378 29.01 44.5336 28.9932C44.1294 28.9763 43.7392 28.8402 43.4122 28.6021C43.0851 28.3639 42.8359 28.0343 42.6958 27.6548C42.5557 27.2753 42.5311 26.8628 42.6249 26.4693L44.3449 19.2105L38.7199 14.3568C38.414 14.0924 38.1928 13.7438 38.0839 13.3545C37.975 12.9651 37.9832 12.5523 38.1074 12.1676C38.2317 11.7829 38.4666 11.4433 38.7827 11.1913C39.0988 10.9393 39.4822 10.786 39.8849 10.7505L47.2599 10.1555L50.1049 3.27053C50.2589 2.8953 50.521 2.57434 50.8579 2.34845C51.1948 2.12256 51.5912 2.00195 51.9968 2.00195C52.4024 2.00195 52.7988 2.12256 53.1357 2.34845C53.4726 2.57434 53.7347 2.8953 53.8887 3.27053L56.7324 10.1555L64.1074 10.7505C64.511 10.7847 64.8954 10.9371 65.2127 11.1888C65.53 11.4405 65.7659 11.7802 65.891 12.1653C66.016 12.5505 66.0246 12.964 65.9157 13.3541C65.8068 13.7441 65.5852 14.0934 65.2787 14.358L65.2862 14.3568Z" fill="#01AEED"/>
<path d="M101.286 14.3568L95.6612 19.2105L97.3749 26.4693C97.4695 26.8633 97.4451 27.2765 97.3049 27.6568C97.1648 28.037 96.9151 28.3671 96.5873 28.6055C96.2596 28.8438 95.8686 28.9797 95.4637 28.996C95.0588 29.0122 94.6582 28.9081 94.3124 28.6968L87.9999 24.8118L81.6837 28.6968C81.338 28.9069 80.9378 29.01 80.5336 28.9932C80.1294 28.9763 79.7392 28.8402 79.4122 28.6021C79.0851 28.3639 78.8359 28.0343 78.6958 27.6548C78.5557 27.2753 78.5311 26.8628 78.6249 26.4693L80.3449 19.2105L74.7199 14.3568C74.414 14.0924 74.1928 13.7438 74.0839 13.3545C73.975 12.9651 73.9832 12.5523 74.1074 12.1676C74.2317 11.7829 74.4666 11.4433 74.7827 11.1913C75.0988 10.9393 75.4822 10.786 75.8849 10.7505L83.2599 10.1555L86.1049 3.27053C86.2589 2.8953 86.521 2.57434 86.8579 2.34845C87.1948 2.12256 87.5912 2.00195 87.9968 2.00195C88.4024 2.00195 88.7988 2.12256 89.1357 2.34845C89.4726 2.57434 89.7347 2.8953 89.8887 3.27053L92.7324 10.1555L100.107 10.7505C100.511 10.7847 100.895 10.9371 101.213 11.1888C101.53 11.4405 101.766 11.7802 101.891 12.1653C102.016 12.5505 102.025 12.964 101.916 13.3541C101.807 13.7441 101.585 14.0934 101.279 14.358L101.286 14.3568Z" fill="#01AEED"/>
<path d="M137.286 14.3568L131.661 19.2105L133.375 26.4693C133.469 26.8633 133.445 27.2765 133.305 27.6568C133.165 28.037 132.915 28.3671 132.587 28.6055C132.26 28.8438 131.869 28.9797 131.464 28.996C131.059 29.0122 130.658 28.9081 130.312 28.6968L124 24.8118L117.684 28.6968C117.338 28.9069 116.938 29.01 116.534 28.9932C116.129 28.9763 115.739 28.8402 115.412 28.6021C115.085 28.3639 114.836 28.0343 114.696 27.6548C114.556 27.2753 114.531 26.8628 114.625 26.4693L116.345 19.2105L110.72 14.3568C110.414 14.0924 110.193 13.7438 110.084 13.3545C109.975 12.9651 109.983 12.5523 110.107 12.1676C110.232 11.7829 110.467 11.4433 110.783 11.1913C111.099 10.9393 111.482 10.786 111.885 10.7505L119.26 10.1555L122.105 3.27053C122.259 2.8953 122.521 2.57434 122.858 2.34845C123.195 2.12256 123.591 2.00195 123.997 2.00195C124.402 2.00195 124.799 2.12256 125.136 2.34845C125.473 2.57434 125.735 2.8953 125.889 3.27053L128.732 10.1555L136.107 10.7505C136.511 10.7847 136.895 10.9371 137.213 11.1888C137.53 11.4405 137.766 11.7802 137.891 12.1653C138.016 12.5505 138.025 12.964 137.916 13.3541C137.807 13.7441 137.585 14.0934 137.279 14.358L137.286 14.3568Z" fill="#01AEED"/>
<path d="M173.898 12.1573C173.773 11.773 173.537 11.4342 173.219 11.1838C172.902 10.9333 172.518 10.7823 172.115 10.7498L164.74 10.1548L161.893 3.26858C161.739 2.89335 161.476 2.57239 161.14 2.3465C160.803 2.12061 160.406 2 160.001 2C159.595 2 159.199 2.12061 158.862 2.3465C158.525 2.57239 158.263 2.89335 158.109 3.26858L155.264 10.1536L147.885 10.7498C147.482 10.784 147.097 10.9364 146.78 11.1881C146.463 11.4398 146.227 11.7795 146.102 12.1646C145.976 12.5498 145.968 12.9633 146.077 13.3534C146.186 13.7434 146.407 14.0927 146.714 14.3573L152.339 19.2111L150.625 26.4686C150.531 26.8626 150.555 27.2758 150.695 27.6561C150.835 28.0363 151.085 28.3664 151.413 28.6048C151.74 28.8431 152.131 28.979 152.536 28.9953C152.941 29.0115 153.342 28.9074 153.688 28.6961L160 24.8111L166.316 28.6961C166.662 28.9062 167.062 29.0093 167.466 28.9925C167.871 28.9756 168.261 28.8395 168.588 28.6014C168.915 28.3632 169.164 28.0336 169.304 27.6541C169.444 27.2746 169.469 26.8621 169.375 26.4686L167.655 19.2098L173.28 14.3561C173.589 14.0919 173.813 13.7419 173.923 13.3504C174.033 12.959 174.024 12.5438 173.898 12.1573ZM171.98 12.8411L165.893 18.0911C165.754 18.2107 165.65 18.3662 165.594 18.5406C165.538 18.715 165.53 18.9015 165.573 19.0798L167.433 26.9298C167.437 26.9406 167.438 26.9529 167.434 26.9641C167.43 26.9752 167.422 26.9844 167.411 26.9898C167.389 27.0073 167.383 27.0036 167.364 26.9898L160.524 22.7836C160.366 22.6874 160.185 22.6368 160 22.6373V3.99983C160.03 3.99983 160.034 4.00983 160.044 4.03233L163.125 11.4823C163.195 11.6526 163.311 11.8002 163.46 11.9087C163.609 12.0172 163.785 12.0825 163.969 12.0973L171.958 12.7423C171.978 12.7423 171.989 12.7423 172 12.7786C172.011 12.8148 172 12.8286 171.98 12.8411Z" fill="#01AEED"/>
</svg>
