<svg width="51" height="50" viewBox="0 0 51 50" fill="none" xmlns="http://www.w3.org/2000/svg">
<path d="M35.7171 24.5932C35.7171 23.8724 35.7171 23.512 35.8255 23.1911C36.1401 22.2578 36.9713 21.8974 37.8046 21.5182C38.738 21.0911 39.2046 20.8786 39.6692 20.8411C40.1942 20.7995 40.7213 20.912 41.1713 21.164C41.7671 21.4974 42.1838 22.1349 42.6088 22.6515C44.5734 25.039 45.5567 26.2328 45.9151 27.5474C46.2067 28.6099 46.2067 29.7224 45.9151 30.7828C45.3921 32.7036 43.7359 34.312 42.5088 35.8036C41.8817 36.564 41.5671 36.9453 41.1713 37.1682C40.7136 37.4221 40.1908 37.5344 39.6692 37.4911C39.2046 37.4536 38.738 37.2411 37.8025 36.814C36.9692 36.4349 36.1401 36.0745 35.8255 35.1411C35.7171 34.8203 35.7171 34.4599 35.7171 33.7411V24.5932ZM14.8838 24.5932C14.8838 23.6849 14.8588 22.8703 14.1255 22.2328C13.8588 22.0015 13.5046 21.8411 12.7984 21.5182C11.863 21.0932 11.3963 20.8786 10.9317 20.8411C9.54213 20.7286 8.79422 21.6786 7.99422 22.6536C6.02755 25.039 5.04422 26.2328 4.6838 27.5495C4.39381 28.6084 4.39381 29.7259 4.6838 30.7849C5.2088 32.7036 6.86713 34.314 8.09213 35.8036C8.86505 36.7411 9.60463 37.5974 10.9317 37.4911C11.3963 37.4536 11.863 37.2411 12.7984 36.814C13.5067 36.4932 13.8588 36.3307 14.1255 36.0995C14.8588 35.462 14.8838 34.6474 14.8838 33.7411V24.5932Z" stroke="#01AEED" stroke-width="3.125" stroke-linecap="round" stroke-linejoin="round"/>
<path d="M41.9664 21.8744V18.7494C41.9664 10.6952 34.5039 4.16602 25.2997 4.16602C16.0956 4.16602 8.63306 10.6952 8.63306 18.7494V21.8744M41.9664 36.4577C41.9664 45.8327 33.6331 45.8327 25.2997 45.8327" stroke="#01AEED" stroke-width="3.125" stroke-linecap="round" stroke-linejoin="round"/>
</svg>
