<svg width="50" height="26" viewBox="0 0 50 26" fill="none" xmlns="http://www.w3.org/2000/svg">
<path d="M16.7417 7.23344C16.1249 7.47344 15.5424 7.64487 14.9256 7.71344C15.611 7.30201 16.0907 6.71915 16.3305 5.96487C15.6795 6.34201 15.0284 6.58201 14.3088 6.71915C13.692 6.06772 12.9039 5.72487 12.013 5.72487C11.122 5.72487 10.3682 6.03344 9.75136 6.65058C9.13456 7.26772 8.82616 8.02201 8.82616 8.87915C8.82616 9.11915 8.86043 9.35915 8.92896 9.63344C7.62683 9.56487 6.39323 9.22201 5.26244 8.63915C4.13164 8.0563 3.17217 7.26772 2.38404 6.30772C2.10991 6.78772 1.97284 7.3363 1.97284 7.91915C1.97284 8.43344 2.07564 8.94772 2.34978 9.42772C2.58964 9.87344 2.93231 10.2506 3.37777 10.5249C2.86377 10.5249 2.38404 10.3877 1.93858 10.1477V10.182C1.93858 10.9363 2.17844 11.622 2.65817 12.2049C3.13791 12.7534 3.75471 13.1306 4.4743 13.2677C4.20017 13.3706 3.92604 13.4049 3.65191 13.4049C3.48057 13.4049 3.27497 13.3706 3.03511 13.3363C3.24071 13.9877 3.61764 14.502 4.16591 14.9134C4.71417 15.3249 5.33097 15.5306 6.0163 15.5306C4.85124 16.422 3.54911 16.902 2.07564 16.902C1.80151 16.902 1.56164 16.8677 1.32178 16.8334C2.79524 17.7934 4.40577 18.2734 6.18763 18.2734C7.28417 18.2734 8.34643 18.102 9.34016 17.7249C10.3339 17.382 11.1563 16.902 11.8759 16.3192C12.5612 15.702 13.178 15.0163 13.6578 14.2277C14.1718 13.4734 14.5487 12.6506 14.7886 11.7934C15.0627 10.9706 15.1655 10.1134 15.1655 9.2563V8.84487C15.7823 8.39915 16.2963 7.85058 16.7417 7.23344Z" fill="#4D0AA4"/>
</svg>
