<svg width="1440" height="640" viewBox="0 0 1440 640" fill="none" xmlns="http://www.w3.org/2000/svg">
<path opacity="0.04" d="M0 573.021C0 573.021 14.5942 624.81 171.414 635.585C257.821 641.52 437.619 564.769 529.421 584.006C603.793 599.59 775.993 663.73 878.149 669.988C1006.7 677.863 1001.32 594.461 1105.6 584.006C1185.64 575.982 1195.7 640.413 1298.58 627.933C1337.47 623.216 1404.47 555.492 1426.38 522.118C1439.04 462.38 1440 438.065 1440 438.065V77.7253C1440 77.7253 1078.51 0 718.513 0C358.513 0 0 77.7253 0 77.7253V573.021Z" fill="#4E4E4E" fill-opacity="0.98"/>
</svg>
