<svg width="320" height="197" viewBox="0 0 320 197" fill="none" xmlns="http://www.w3.org/2000/svg">
<path opacity="0.05" d="M293.707 35.024C302.629 45.1072 309.441 56.8183 313.756 69.4884C318.071 82.1585 319.803 95.5396 318.854 108.868C317.906 122.196 314.294 135.209 308.226 147.166C302.159 159.123 293.753 169.788 283.49 178.553L154.607 293.302L-162.1 293.301C-162.1 293.301 -32.147 178.539 -18.8101 167.148L147.629 24.9933C157.891 16.2279 169.809 9.5342 182.704 5.29449C195.599 1.05477 209.218 -0.647978 222.782 0.283464C236.347 1.21491 249.592 4.76229 261.762 10.7231C273.931 16.6839 284.786 24.9413 293.707 35.024Z" fill="white"/>
</svg>
