<svg width="24" height="24" viewBox="0 0 24 24" fill="none" xmlns="http://www.w3.org/2000/svg">
<path fill-rule="evenodd" clip-rule="evenodd" d="M11.9999 3.25C12.1988 3.25 12.3896 3.32902 12.5302 3.46967C12.6709 3.61032 12.7499 3.80109 12.7499 4V18.19L17.4699 13.47C17.5386 13.3963 17.6214 13.3372 17.7134 13.2962C17.8054 13.2552 17.9047 13.2332 18.0054 13.2314C18.1061 13.2296 18.2061 13.2482 18.2995 13.2859C18.3929 13.3236 18.4777 13.3797 18.5489 13.451C18.6202 13.5222 18.6763 13.607 18.714 13.7004C18.7518 13.7938 18.7703 13.8938 18.7685 13.9945C18.7667 14.0952 18.7447 14.1945 18.7037 14.2865C18.6627 14.3785 18.6036 14.4613 18.5299 14.53L12.5299 20.53C12.3893 20.6705 12.1987 20.7493 11.9999 20.7493C11.8012 20.7493 11.6105 20.6705 11.4699 20.53L5.46991 14.53C5.39622 14.4613 5.33712 14.3785 5.29613 14.2865C5.25514 14.1945 5.23309 14.0952 5.23132 13.9945C5.22954 13.8938 5.24807 13.7938 5.28579 13.7004C5.32351 13.607 5.37965 13.5222 5.45087 13.451C5.52209 13.3797 5.60692 13.3236 5.70031 13.2859C5.7937 13.2482 5.89373 13.2296 5.99443 13.2314C6.09513 13.2332 6.19445 13.2552 6.28645 13.2962C6.37845 13.3372 6.46125 13.3963 6.52991 13.47L11.2499 18.19V4C11.2499 3.80109 11.3289 3.61032 11.4696 3.46967C11.6102 3.32902 11.801 3.25 11.9999 3.25Z" fill="black"/>
</svg>
