<svg width="50" height="50" viewBox="0 0 50 50" fill="none" xmlns="http://www.w3.org/2000/svg">
<path d="M47.305 32.1681L43.3372 30.3677L42.2018 28.5328C46.6284 25.7347 49.3119 20.8723 49.3119 15.6314V8.09704C49.3005 7.67273 49.0596 7.28282 48.6812 7.08787L38.4862 1.66356C38.1422 1.48007 37.7294 1.48007 37.3968 1.67503L27.5229 7.08787C27.156 7.29429 26.9381 7.67273 26.9495 8.09704V15.7805C26.9381 17.9594 27.3853 20.1269 28.2798 22.1223H20.0115C18.2339 22.1223 16.5482 22.9594 15.4587 24.37L10.9518 30.2759L3.38303 32.3402C1.38761 32.8792 0.0114679 34.6911 0 36.7553V39.6452C0.0114679 42.1796 2.07569 44.2324 4.61009 44.2553H5.16055C6.00917 47.3287 9.19725 49.1291 12.2706 48.2691C14.2202 47.7301 15.7454 46.2048 16.2844 44.2553H33.1422C33.9908 47.3287 37.1789 49.1291 40.2523 48.2691C42.2018 47.7301 43.7271 46.2048 44.2661 44.2553H45.3899C47.9243 44.2438 49.9885 42.1911 50 39.6452V36.331C49.9885 34.5305 48.9335 32.9136 47.305 32.1681ZM29.2431 8.77365L37.9931 3.9686L47.0183 8.78512V15.6314C47.0069 20.8723 43.8647 25.5856 39.0367 27.6154C39.0367 27.6154 39.0252 27.6154 39.0138 27.6154L37.9128 28.0856L37.0183 27.6842C32.2936 25.6085 29.2431 20.9411 29.2431 15.7691V8.77365ZM10.7225 46.1475C8.79587 46.1475 7.24771 44.5879 7.24771 42.6727C7.24771 40.7461 8.80734 39.198 10.7225 39.198C12.6491 39.198 14.1972 40.7576 14.1972 42.6727C14.1972 44.5879 12.6376 46.136 10.7225 46.1475ZM38.7041 46.1475C36.7775 46.1475 35.2294 44.5879 35.2294 42.6727C35.2294 40.7576 36.789 39.198 38.7041 39.198C40.6307 39.198 42.1789 40.7576 42.1789 42.6727C42.1904 44.5879 40.6307 46.136 38.7041 46.1475ZM47.7179 39.6337H47.7064C47.695 40.9067 46.6628 41.9388 45.3899 41.9502H44.4266C44.0138 38.7851 41.1239 36.5603 37.9587 36.9732C35.367 37.3058 33.3142 39.3585 32.9817 41.9502H16.445C16.0321 38.7851 13.1422 36.5603 9.97706 36.9732C7.38532 37.3058 5.33257 39.3585 5 41.9502H4.61009C3.33716 41.9388 2.30505 40.9067 2.29358 39.6337V36.7438C2.30505 35.7117 2.99312 34.8172 3.99083 34.542L11.9266 32.3746C12.1674 32.3058 12.3853 32.1681 12.5459 31.9617L17.2936 25.7461C17.9472 24.8975 18.9564 24.4044 20.0229 24.4044H29.5872C31.2156 26.7668 33.4748 28.636 36.1009 29.7943L37.4771 30.3906C37.7638 30.5168 38.0963 30.5168 38.3945 30.3906L39.9427 29.7255C40.0229 29.6911 40.1032 29.6567 40.172 29.6223L41.5826 31.8814C41.6972 32.0764 41.8693 32.2255 42.0757 32.3172L46.3647 34.2553C47.1789 34.6223 47.7064 35.4365 47.7179 36.331V39.6337Z" fill="#04ABEB"/>
<path d="M43.6469 13.108C43.2455 12.6149 42.5345 12.5346 42.0299 12.9245L42.0185 12.936L36.6515 17.3052L34.7019 15.0231C34.2891 14.5415 33.5666 14.4727 33.085 14.8855C32.6033 15.2983 32.5345 16.0208 32.9474 16.5025L32.9588 16.5139L35.6308 19.6447C35.6423 19.6676 35.6538 19.6791 35.6652 19.6905C35.6767 19.702 35.6882 19.7249 35.7111 19.7364C35.7226 19.7479 35.7455 19.7708 35.757 19.7823C35.7685 19.7938 35.7914 19.8052 35.8029 19.8167C35.8143 19.8282 35.8373 19.8396 35.8602 19.8511C35.8831 19.8626 35.8946 19.874 35.9061 19.8855C35.929 19.897 35.9405 19.9084 35.9634 19.9199C35.9749 19.9314 35.9978 19.9428 36.0093 19.9428C36.0322 19.9543 36.0552 19.9658 36.0781 19.9658C36.0896 19.9772 36.1125 19.9772 36.124 19.9887C36.1469 20.0002 36.1698 20.0002 36.1928 20.0116C36.2042 20.0116 36.2272 20.0231 36.2386 20.0231C36.2616 20.0231 36.2845 20.0346 36.3074 20.0346C36.3189 20.0346 36.3418 20.046 36.3533 20.046C36.3877 20.046 36.4107 20.046 36.4451 20.046C36.4565 20.046 36.468 20.046 36.4795 20.046C36.5139 20.046 36.5483 20.046 36.5827 20.046C36.5941 20.046 36.5941 20.046 36.6056 20.046C36.6285 20.046 36.6629 20.0346 36.6859 20.0346C36.6974 20.0346 36.7088 20.0346 36.7203 20.0231C36.7432 20.0231 36.7662 20.0116 36.7891 20.0116C36.8006 20.0116 36.812 20.0002 36.8235 20.0002C36.8464 20.0002 36.8579 19.9887 36.8808 19.9772C36.8923 19.9772 36.9038 19.9658 36.9267 19.9658C36.9382 19.9543 36.9611 19.9543 36.9726 19.9428C36.984 19.9314 37.007 19.9314 37.0185 19.9199C37.0299 19.9084 37.0529 19.9084 37.0643 19.897C37.0758 19.8855 37.0987 19.874 37.1102 19.874C37.1217 19.874 37.1331 19.8511 37.1561 19.8511C37.1675 19.8396 37.179 19.8282 37.2019 19.8167C37.2134 19.8052 37.2249 19.8052 37.2363 19.7938L43.4634 14.7249C43.9565 14.3236 44.0368 13.6126 43.6469 13.108Z" fill="#04ABEB"/>
</svg>
