<svg width="110" height="110" viewBox="0 0 110 110" fill="none" xmlns="http://www.w3.org/2000/svg">
<rect width="110" height="110" rx="55" fill="#040404"/>
<path d="M52.3999 52.1428L42.9733 61.5695C42.7253 61.8172 42.5286 62.1113 42.3944 62.435C42.2602 62.7587 42.1912 63.1057 42.1912 63.4562C42.1912 63.8066 42.2602 64.1536 42.3944 64.4774C42.5286 64.8011 42.7253 65.0952 42.9733 65.3428C43.4733 65.8428 44.1515 66.1236 44.8586 66.1236C45.5657 66.1236 46.2439 65.8428 46.7439 65.3428L56.1706 55.9135M61.9239 56.4002L67.0946 61.5708C67.5945 62.0709 67.8754 62.7491 67.8754 63.4562C67.8754 64.1633 67.5945 64.8414 67.0946 65.3415C66.5945 65.8414 65.9164 66.1223 65.2093 66.1223C64.5022 66.1223 63.824 65.8414 63.3239 65.3415L55.0453 57.0642M47.9773 45.8722L45.1466 46.8135L42.3199 42.1002L44.2053 40.2148L48.9199 43.0428L47.9773 45.8722ZM47.9773 45.8722L51.7506 49.6455" stroke="white" stroke-width="1.5" stroke-linecap="round" stroke-linejoin="round"/>
<path d="M52.3999 52.1433C51.2746 49.2726 51.4946 45.5059 53.8146 43.1859C56.1346 40.8659 60.4146 40.3579 62.7706 41.7726L58.7172 45.8259L58.3399 49.9739L62.4879 49.5979L66.5412 45.5433C67.9572 47.9006 67.4479 52.1806 65.1279 54.4993C62.8079 56.8193 59.0426 57.0393 56.1719 55.9139" stroke="white" stroke-width="1.5" stroke-linecap="round" stroke-linejoin="round"/>
</svg>
