<svg width="110" height="110" viewBox="0 0 110 110" fill="none" xmlns="http://www.w3.org/2000/svg">
<rect width="110" height="110" rx="55" fill="#04ABEB"/>
<g clip-path="url(#clip0_57_5863)">
<path d="M63.0201 38.6588H51.9922C51.4283 38.6588 50.9531 38.8521 50.5667 39.2386C50.1803 39.6251 49.9871 40.1004 49.9871 40.6645H61.0151V48.6873H69.0354V64.7329H62.0176V66.7386H69.0354C69.5993 66.7386 70.0744 66.5453 70.4608 66.1588C70.8472 65.7723 71.0404 65.297 71.0404 64.7329V46.6816L63.0201 38.6588ZM63.0201 46.6816V41.4793L68.1895 46.6816H63.0201ZM40.9643 42.6702C40.4004 42.6702 39.9252 42.8635 39.5388 43.25C39.1524 43.6365 38.9592 44.1118 38.9592 44.6759V68.7443C38.9592 69.3084 39.1524 69.7837 39.5388 70.1702C39.9252 70.5567 40.4004 70.75 40.9643 70.75H58.0074C58.5714 70.75 59.0465 70.5567 59.4329 70.1702C59.8193 69.7837 60.0125 69.3084 60.0125 68.7443V50.693L51.9922 42.6702H40.9643ZM58.0074 68.7443H40.9643V44.6759H49.9871V52.6987H58.0074V68.7443ZM51.9922 50.693V45.4907L57.1616 50.693H51.9922Z" fill="white"/>
</g>
<defs>
<clipPath id="clip0_57_5863">
<rect width="32.18" height="33" fill="white" transform="matrix(1 0 0 -1 38.9099 71)"/>
</clipPath>
</defs>
</svg>
