<svg width="95" height="95" viewBox="0 0 95 95" fill="none" xmlns="http://www.w3.org/2000/svg">
<g filter="url(#filter0_d_69_6721)">
<rect x="25" y="25" width="45" height="45" rx="22.5" fill="white"/>
<g clip-path="url(#clip0_69_6721)">
<g clip-path="url(#clip1_69_6721)">
<path fill-rule="evenodd" clip-rule="evenodd" d="M50.5 39.5H51.5V40.5H50.5V39.5ZM49.5 40.5H50.5V41.5H49.5V40.5ZM48.5 41.5H49.5V42.5H48.5V41.5ZM47.5 42.5H48.5V43.5H47.5V42.5ZM46.5 43.5H47.5V44.5H46.5V43.5ZM45.5 44.5H46.5V45.5H45.5V44.5ZM44.5 45.5H45.5V46.5H44.5V45.5ZM43.5 46.5H44.5V47.5H43.5V46.5ZM44.5 47.5H45.5V48.5H44.5V47.5ZM45.5 48.5H46.5V49.5H45.5V48.5ZM46.5 49.5H47.5V50.5H46.5V49.5ZM47.5 50.5H48.5V51.5H47.5V50.5ZM48.5 51.5H49.5V52.5H48.5V51.5ZM49.5 52.5H50.5V53.5H49.5V52.5ZM50.5 53.5H51.5V54.5H50.5V53.5Z" fill="#3D3D3D"/>
</g>
</g>
</g>
<defs>
<filter id="filter0_d_69_6721" x="0" y="0" width="95" height="95" filterUnits="userSpaceOnUse" color-interpolation-filters="sRGB">
<feFlood flood-opacity="0" result="BackgroundImageFix"/>
<feColorMatrix in="SourceAlpha" type="matrix" values="0 0 0 0 0 0 0 0 0 0 0 0 0 0 0 0 0 0 127 0" result="hardAlpha"/>
<feOffset/>
<feGaussianBlur stdDeviation="12.5"/>
<feComposite in2="hardAlpha" operator="out"/>
<feColorMatrix type="matrix" values="0 0 0 0 0 0 0 0 0 0 0 0 0 0 0 0 0 0 0.16 0"/>
<feBlend mode="normal" in2="BackgroundImageFix" result="effect1_dropShadow_69_6721"/>
<feBlend mode="normal" in="SourceGraphic" in2="effect1_dropShadow_69_6721" result="shape"/>
</filter>
<clipPath id="clip0_69_6721">
<rect width="8" height="16" fill="white" transform="translate(43.5 39.5)"/>
</clipPath>
<clipPath id="clip1_69_6721">
<rect width="326" height="1214" fill="white" transform="translate(43.5 -520.5)"/>
</clipPath>
</defs>
</svg>
