<svg width="31" height="31" viewBox="0 0 31 31" fill="none" xmlns="http://www.w3.org/2000/svg">
<g clip-path="url(#clip0_3_568)">
<path d="M8.27612 2.56133C9.38941 4.02383 10.698 5.89883 12.2019 8.18633C12.573 8.78633 12.5144 9.52695 12.0261 10.4082C11.8699 10.7082 11.4011 11.5426 10.6199 12.9113C10.7761 13.1363 10.9568 13.3707 11.1619 13.6145C11.3669 13.8582 11.5867 14.116 11.821 14.3879C12.0554 14.6598 12.3093 14.9363 12.5828 15.2176C12.8562 15.4988 13.1443 15.7941 13.447 16.1035C13.7498 16.4129 14.0671 16.727 14.3992 17.0457C16.1179 18.6957 17.5437 19.9145 18.6765 20.702C19.946 19.9895 20.8152 19.5207 21.2839 19.2957C21.7722 19.0332 22.241 18.902 22.6902 18.902C23.0417 18.902 23.3445 18.977 23.5984 19.127C25.3367 20.1395 27.3093 21.3957 29.5164 22.8957C29.907 23.1957 30.1414 23.5895 30.2195 24.077C30.2781 24.5832 30.1121 25.127 29.7214 25.7082C29.5652 25.9332 29.2625 26.3082 28.8132 26.8332C28.4031 27.3207 27.783 27.9395 26.9529 28.6895C26.1228 29.4395 25.4441 29.8145 24.9167 29.8145H24.8582C22.8464 29.7395 20.6101 28.9801 18.1492 27.5363C15.6882 26.0926 12.9929 23.9738 10.0632 21.1801C4.22339 15.5551 1.22534 10.8207 1.06909 6.97695C1.06909 6.4707 1.45972 5.80508 2.24097 4.98008C3.00269 4.19258 3.63745 3.60195 4.14526 3.2082C4.65308 2.8332 5.06323 2.54258 5.37573 2.33633C5.78589 2.05508 6.2644 1.91445 6.81128 1.91445C7.43628 1.91445 7.92456 2.13008 8.27612 2.56133ZM6.40112 3.71445C5.6394 4.23945 4.89722 4.84883 4.17456 5.54258C3.47144 6.21758 3.06128 6.71445 2.94409 7.0332C3.10034 10.4082 5.90796 14.7113 11.3669 19.9426C16.8259 25.1738 21.323 27.8832 24.8582 28.0707C25.1511 27.9582 25.6492 27.5551 26.3523 26.8613C27.0554 26.1676 27.6902 25.4457 28.2566 24.6957C28.3152 24.6207 28.3542 24.5504 28.3738 24.4848C28.3933 24.4191 28.3933 24.3582 28.3738 24.302C26.1277 22.802 24.2332 21.5832 22.6902 20.6457C22.5339 20.6457 22.3386 20.702 22.1042 20.8145C22.0261 20.852 21.7136 21.0207 21.1667 21.3207C20.6199 21.6207 20.0828 21.902 19.5554 22.1645L18.5886 22.727L17.6218 22.1082C16.3914 21.302 14.8777 20.0176 13.0808 18.2551C11.323 16.5488 10.0046 15.0957 9.12573 13.8957L8.42261 13.0238L9.00855 12.0395C9.7312 10.7832 10.2 9.96758 10.4148 9.59258C10.532 9.36758 10.5906 9.18008 10.5906 9.03008C9.92651 8.01758 9.28198 7.05664 8.65698 6.14727C8.03198 5.23789 7.43628 4.38945 6.86987 3.60195H6.81128C6.65503 3.60195 6.51831 3.63945 6.40112 3.71445Z" fill="#040404"/>
</g>
<defs>
<clipPath id="clip0_3_568">
<rect width="30" height="30" fill="white" transform="matrix(1 0 0 -1 0.600586 30.7383)"/>
</clipPath>
</defs>
</svg>
