<svg width="51" height="26" viewBox="0 0 51 26" fill="none" xmlns="http://www.w3.org/2000/svg">
<g clip-path="url(#clip0_75_10378)">
<path d="M11.4367 12.1365C11.4367 11.8279 11.4024 11.5193 11.3681 11.2107H6.08808V13.1307H9.24237C9.20808 13.3022 9.1738 13.4736 9.10523 13.6793C9.00237 13.885 8.89951 14.0907 8.72808 14.3307C8.55665 14.5365 8.35094 14.7422 8.11094 14.9136C7.90523 15.085 7.59665 15.2222 7.2538 15.3593C6.87665 15.4622 6.49951 15.5307 6.08808 15.5307C5.47094 15.5307 4.88808 15.3593 4.33951 15.0507C3.82523 14.7422 3.4138 14.2965 3.10523 13.7822C2.79665 13.2336 2.62523 12.6507 2.62523 11.9993C2.62523 11.3479 2.79665 10.765 3.10523 10.2165C3.4138 9.70218 3.82523 9.25646 4.33951 8.94789C4.88808 8.63932 5.47094 8.46789 6.08808 8.46789C6.97951 8.46789 7.69951 8.74218 8.31665 9.32503L9.82523 7.88503C8.79665 6.89075 7.52808 6.41075 6.08808 6.41075C5.3338 6.41075 4.6138 6.54789 3.92808 6.85646C3.20808 7.16503 2.62523 7.54218 2.14523 8.05646C1.63094 8.53646 1.21951 9.15361 0.945226 9.83932C0.636655 10.525 0.499512 11.245 0.499512 11.9993C0.499512 12.7536 0.636655 13.4736 0.945226 14.1593C1.21951 14.845 1.63094 15.4622 2.14523 15.9422C2.62523 16.4565 3.20808 16.8336 3.92808 17.1422C4.6138 17.4507 5.3338 17.5879 6.08808 17.5879C7.15094 17.5879 8.07665 17.3479 8.89951 16.9022C9.72237 16.4222 10.3395 15.7707 10.7852 14.9479C11.2309 14.125 11.4367 13.1993 11.4367 12.1365ZM18.0538 11.2107H16.4767V9.59932H14.8652V11.2107H13.2538V12.7879H14.8652V14.3993H16.4767V12.7879H18.0538V11.2107Z" fill="#4D0AA4"/>
</g>
<defs>
<clipPath id="clip0_75_10378">
<rect width="17.94" height="18" fill="white" transform="matrix(1 0 0 -1 0.306641 20.8105)"/>
</clipPath>
</defs>
</svg>
