<svg width="483" height="167" viewBox="0 0 483 167" fill="none" xmlns="http://www.w3.org/2000/svg">
<path opacity="0.05" d="M456.707 35.483C465.629 45.5662 472.441 57.2772 476.756 69.9474C481.071 82.6175 482.803 95.9986 481.854 109.327C480.906 122.654 477.294 135.668 471.226 147.625C465.159 159.582 456.753 170.247 446.49 179.012L317.607 293.761L0.899769 293.76C0.899769 293.76 130.853 178.998 144.19 167.607L310.629 25.4523C320.891 16.6868 332.809 9.99319 345.704 5.75347C358.599 1.51376 372.218 -0.188993 385.782 0.742448C399.347 1.67389 412.592 5.22127 424.762 11.1821C436.931 17.1429 447.786 25.4003 456.707 35.483Z" fill="white"/>
</svg>
