<svg width="51" height="50" viewBox="0 0 51 50" fill="none" xmlns="http://www.w3.org/2000/svg">
<path d="M22.8752 0C22.2466 0 21.7352 0.5114 21.7352 1.14V4.6026C9.73865 5.19923 0.149902 15.1289 0.149902 27.2747C0.149902 39.804 10.3459 50 22.8752 50C35.021 50 44.9507 40.4113 45.5473 28.404H49.0099C49.6385 28.404 50.1499 27.8926 50.1499 27.264C50.1499 12.231 37.9189 0 22.8752 0ZM22.8752 47.7307C11.5925 47.7307 2.41924 38.5574 2.41924 27.2747C2.41924 16.3755 10.9852 7.46857 21.7352 6.87194V9.40763C21.7352 11.6024 23.2481 13.4775 25.3257 13.8504C30.8765 14.8626 35.2873 19.2627 36.2888 24.8136C36.6617 26.8911 38.5369 28.404 40.7316 28.404H43.2673C42.6813 39.1647 33.7744 47.7307 22.8752 47.7307ZM40.7423 26.1347C39.6555 26.1347 38.7073 25.3995 38.5369 24.4087C37.3542 17.931 32.2189 12.785 25.7412 11.613C24.761 11.4319 24.0152 10.4837 24.0152 9.40763V2.3013C36.8961 2.87662 47.2733 13.2538 47.8593 26.1347H40.7423Z" fill="#04ABEB"/>
</svg>
