<svg width="51" height="50" viewBox="0 0 51 50" fill="none" xmlns="http://www.w3.org/2000/svg">
<path d="M40.3317 7.00361H35.4504V6.45199C35.44 4.68263 34.0037 3.24632 32.2343 3.25673H30.6211C29.5803 0.613101 26.5932 -0.687898 23.9495 0.352902C22.6173 0.873301 21.5661 1.92451 21.0457 3.25673H19.4637C17.7151 3.25673 16.2997 4.67222 16.2997 6.42076C16.2997 6.43117 16.2997 6.44158 16.2997 6.46239V7.01402H11.4183C9.04529 7.01402 7.14062 8.98113 7.14062 11.3541V45.7422C7.14062 48.084 9.03488 49.9886 11.3871 49.999C11.3975 49.999 11.4079 49.999 11.4287 49.999H40.3317C42.6735 50.0198 44.599 48.136 44.6094 45.7838C44.6094 45.7734 44.6094 45.763 44.6094 45.7422V11.3437C44.6094 8.97072 42.6943 7.00361 40.3317 7.00361ZM18.3813 6.45199C18.3604 5.85873 18.8288 5.35915 19.4221 5.33833C19.4325 5.33833 19.4533 5.33833 19.4637 5.33833H21.7951C22.2843 5.33833 22.7006 4.99487 22.8047 4.52651C23.1481 3.05898 24.3554 2.07022 25.8126 2.07022C27.2593 2.07022 28.5082 3.0902 28.8101 4.50569C28.9141 4.99487 29.3305 5.33833 29.8301 5.33833H32.2239C32.8484 5.32792 33.3584 5.82751 33.3584 6.45199V10.5423H18.3813V6.45199ZM42.5278 45.7318C42.5278 46.9287 41.5599 47.8966 40.3733 47.907C40.3629 47.907 40.3421 47.907 40.3317 47.907H11.4183C10.2214 47.9278 9.23263 46.9703 9.22222 45.7734C9.22222 45.763 9.22222 45.7422 9.22222 45.7318V11.3437C9.22222 10.1156 10.2006 9.08521 11.4183 9.08521H16.2997V11.6144C16.2788 12.1452 16.6952 12.6031 17.2364 12.6239C17.2572 12.6239 17.278 12.6239 17.2884 12.6239H34.4096C34.9716 12.6447 35.44 12.1972 35.4504 11.6352C35.4504 11.6248 35.4504 11.6248 35.4504 11.6144V9.08521H40.3317C41.5599 9.08521 42.5278 10.126 42.5278 11.3437V45.7318Z" fill="#04ABEB"/>
<path d="M23.0649 34.8984H14.114C13.5416 34.8984 13.0732 35.3668 13.0732 35.9392V44.5779C13.0732 45.1503 13.5416 45.6187 14.114 45.6187H23.0649C23.6374 45.6187 24.1057 45.1503 24.1057 44.5779V35.9392C24.1057 35.3668 23.6374 34.8984 23.0649 34.8984ZM22.0241 43.5371H15.1548V36.98H22.0241V43.5371Z" fill="#04ABEB"/>
<path d="M20.8583 38.3223C20.4315 37.958 19.7862 37.9997 19.4115 38.416L18.1105 39.8939L17.663 39.54C17.2155 39.1758 16.5598 39.2486 16.1955 39.6962C15.852 40.1541 15.9249 40.8098 16.3828 41.1741L17.611 42.1524C18.0481 42.4959 18.6726 42.4439 19.0473 42.0275L20.9832 39.7898C21.3578 39.3527 21.2954 38.697 20.8583 38.3223Z" fill="#04ABEB"/>
<path d="M33.2752 36.9805H26.8118C26.2394 36.9805 25.771 37.4488 25.771 38.0213C25.771 38.5937 26.2289 39.0621 26.8118 39.0621H33.2752C33.8476 39.0621 34.316 38.5937 34.316 38.0213C34.316 37.4488 33.8476 36.9805 33.2752 36.9805Z" fill="#04ABEB"/>
<path d="M37.6153 41.3516H26.8118C26.2394 41.3516 25.771 41.8199 25.771 42.3924C25.771 42.9648 26.2394 43.4332 26.8118 43.4332H37.6257C38.1981 43.4332 38.6665 42.9648 38.6665 42.3924C38.6665 41.8199 38.1981 41.3516 37.6153 41.3516Z" fill="#04ABEB"/>
<path d="M39.4054 22.2316L37.0116 21.1491L34.8779 17.7561C34.1598 16.6216 32.9108 15.9347 31.5682 15.9555H23.2938C22.0761 15.9451 20.9312 16.5072 20.1923 17.4647L17.4445 21.0659L12.8234 22.3252C11.4391 22.6999 10.4712 23.9593 10.4712 25.3852V27.1962C10.4712 28.9551 11.9075 30.4226 13.6664 30.4226H13.7705C14.3013 31.8798 15.7689 33.0663 17.4862 33.0663C19.2035 33.0663 20.671 31.8798 21.2018 30.4226H30.1839C30.7147 31.8798 32.1823 33.0663 33.8996 33.0663C35.6169 33.0663 37.0844 31.8798 37.6152 30.4226H38.0836C39.8425 30.4226 41.2789 28.9551 41.2789 27.1962V25.1354C41.2789 23.8864 40.5399 22.752 39.4054 22.2316ZM17.4862 30.943C16.4662 30.943 15.6336 30.1104 15.6336 29.0904C15.6336 28.0704 16.4662 27.2378 17.4862 27.2378C18.5062 27.2378 19.3388 28.0704 19.3388 29.0904C19.3388 30.1208 18.5062 30.943 17.4862 30.943ZM33.91 30.943C32.89 30.943 32.0574 30.1104 32.0574 29.0904C32.0574 28.0704 32.89 27.2378 33.91 27.2378C34.93 27.2378 35.7626 28.0704 35.7626 29.0904C35.7522 30.1208 34.93 30.943 33.91 30.943ZM38.0836 28.341H37.761C37.3967 26.4676 35.8042 25.1978 33.91 25.1978C32.0157 25.1978 30.4129 26.4676 30.0486 28.341H21.3371C20.9937 26.4884 19.3596 25.1562 17.4862 25.177C15.6231 25.177 14.0099 26.478 13.6248 28.3098C13.0316 28.289 12.5528 27.7998 12.5528 27.1962V25.3852C12.5528 24.8856 12.8858 24.4485 13.3646 24.3236L18.3292 22.9705C18.5478 22.9081 18.7455 22.7832 18.8808 22.5958L21.8471 18.7241C22.1906 18.2765 22.7318 18.0267 23.2938 18.0371H31.5682C32.1927 18.0267 32.7755 18.339 33.1086 18.8698L35.4087 22.5334C35.5128 22.6999 35.6794 22.8352 35.8563 22.9185L38.5311 24.1258C38.9266 24.3027 39.1764 24.6983 39.1764 25.125L39.1868 27.1962C39.1868 27.8102 38.7081 28.3202 38.0836 28.341Z" fill="#04ABEB"/>
</svg>
