<svg width="248" height="180" viewBox="0 0 248 180" fill="none" xmlns="http://www.w3.org/2000/svg">
<path d="M226.376 174.348C226.183 175.715 227.136 176.979 228.503 177.172C229.87 177.364 231.134 176.412 231.327 175.045L226.376 174.348ZM96.0453 85.874L94.4843 87.8267L94.4848 87.8272L96.0453 85.874ZM178.037 46.5905L175.567 46.9782L175.567 46.9785L178.037 46.5905ZM0.824652 30.7866C-0.201251 31.7107 -0.283835 33.2915 0.640237 34.3174C1.56428 35.3433 3.14505 35.4258 4.17096 34.5018L0.824652 30.7866ZM246.906 166.209C248.016 165.387 248.249 163.821 247.427 162.712C246.606 161.602 245.04 161.369 243.931 162.191L246.906 166.209ZM228.744 176.548L227.185 178.503C228.071 179.209 229.321 179.231 230.231 178.557L228.744 176.548ZM212.801 161.185C211.644 160.431 210.096 160.759 209.342 161.916C208.589 163.073 208.916 164.621 210.073 165.375L212.801 161.185ZM228.851 174.696C231.327 175.045 231.327 175.043 231.327 175.042C231.327 175.041 231.328 175.039 231.328 175.037C231.328 175.033 231.329 175.028 231.33 175.021C231.332 175.008 231.335 174.989 231.338 174.965C231.344 174.916 231.354 174.846 231.366 174.754C231.389 174.572 231.422 174.305 231.463 173.958C231.544 173.264 231.653 172.251 231.77 170.956C232.002 168.366 232.263 164.646 232.378 160.094C232.608 150.997 232.261 138.539 229.936 125.123C225.299 98.3628 212.685 67.2673 180.503 51.9828L178.358 56.4992C208.395 70.765 220.49 99.897 225.009 125.977C227.263 138.981 227.604 151.096 227.379 159.967C227.267 164.399 227.014 168.012 226.79 170.509C226.678 171.757 226.573 172.726 226.497 173.378C226.459 173.704 226.428 173.951 226.407 174.114C226.396 174.196 226.388 174.257 226.383 174.296C226.38 174.315 226.378 174.329 226.377 174.338C226.376 174.342 226.376 174.345 226.376 174.347C226.376 174.348 226.376 174.348 226.376 174.348C226.376 174.348 226.376 174.348 228.851 174.696ZM180.503 51.9828C148.75 36.9012 121.445 40.2908 104.78 50.1463C96.4951 55.0461 90.6908 61.6495 88.5411 68.5162C86.3377 75.5548 88.0664 82.6963 94.4843 87.8267L97.6063 83.9213C92.8859 80.1477 91.6914 75.1893 93.3128 70.01C94.988 64.6587 99.7566 58.9262 107.325 54.4499C122.368 45.5533 147.894 42.0304 178.358 56.4992L180.503 51.9828ZM94.4848 87.8272C100.595 92.7091 109.505 95.3635 119.07 96.0293C128.681 96.6985 139.231 95.3824 148.851 92.0427C158.46 88.7067 167.299 83.2939 173.291 75.6439C179.334 67.9304 182.372 58.0732 180.507 46.2025L175.567 46.9785C177.216 57.473 174.546 65.9337 169.355 72.5605C164.114 79.2508 156.193 84.2007 147.211 87.3193C138.239 90.4341 128.366 91.6644 119.417 91.0414C110.421 90.4151 102.635 87.9387 97.6058 83.9209L94.4848 87.8272ZM180.507 46.2029C178.589 33.9862 169.504 23.861 156.726 16.3531C143.91 8.82218 127.04 3.70446 108.753 1.59954C72.2481 -2.60261 29.3076 5.13142 0.824652 30.7866L4.17096 34.5018C31.2409 10.1193 72.5603 2.46635 108.182 6.56675C125.959 8.61308 142.119 13.569 154.193 20.664C166.307 27.7819 173.975 36.8347 175.567 46.9782L180.507 46.2029ZM243.931 162.191L227.256 174.539L230.231 178.557L246.906 166.209L243.931 162.191ZM228.744 176.548C230.302 174.593 230.302 174.593 230.302 174.593C230.302 174.593 230.301 174.593 230.301 174.592C230.301 174.592 230.3 174.591 230.299 174.591C230.298 174.589 230.295 174.587 230.292 174.585C230.285 174.579 230.275 174.571 230.262 174.561C230.236 174.54 230.197 174.509 230.146 174.469C230.044 174.388 229.894 174.269 229.703 174.117C229.32 173.813 228.77 173.376 228.098 172.844C226.755 171.782 224.925 170.34 222.982 168.824C219.145 165.831 214.718 162.432 212.801 161.185L210.073 165.375C211.766 166.477 215.992 169.713 219.906 172.766C221.838 174.273 223.658 175.708 224.996 176.766C225.665 177.295 226.213 177.729 226.593 178.032C226.783 178.183 226.931 178.301 227.032 178.381C227.082 178.421 227.121 178.451 227.147 178.472C227.16 178.482 227.169 178.49 227.176 178.495C227.179 178.498 227.181 178.5 227.183 178.501C227.184 178.502 227.184 178.502 227.185 178.502C227.185 178.503 227.185 178.503 227.185 178.503C227.185 178.503 227.185 178.503 228.744 176.548Z" fill="#01AEED"/>
</svg>
